#tb 0: 1/24
0,          0,          0,        1,    37697, 9ca5df27b0158aca2a38dff946f58c41
0,          1,          1,        1,    37697, 627129a99538ec1ac51be910ca92ebc4
0,          2,          2,        1,    37697, 6c2df1f21af317aa5bb68b161ca96c70
0,          3,          3,        1,    37697, d66db823863838ca5b7f9125609e7de3
0,          4,          4,        1,    37697, ecc970f8846290c0b7bf8d0865975cb7
0,          5,          5,        1,    37697, 2fe7575c448562e291933e297335e1c8
0,          6,          6,        1,    37697, e2a6fb8af11f65ce1153d6021df39e5f
0,          7,          7,        1,    37697, 4536008cd0a425c9a9d93cbb3e8ba640
0,          8,          8,        1,    37697, 478f042fff1cf0b6fd2eed391879c7ba
0,          9,          9,        1,    37697, f079ee39021b1dd730f80bfaff9a6ae4
0,         10,         10,        1,    37697, cb9b166c785ceabecf79e12e6068d4e4
0,         11,         11,        1,    37697, 6bd6f77dc9c45cec08949a42aa1c2653
0,         12,         12,        1,    37697, 1433577eb50b3270c0f1d6d26fb26277
0,         13,         13,        1,    37697, 2765b207d230efd9a3e2e93c641b8553
0,         14,         14,        1,    37697, a67e2f6bcf3b03e250c0ad8f1384ffb6
0,         15,         15,        1,    37697, b5ea80e2dbffefdd8a613c25ee7f5f0c
0,         16,         16,        1,    37697, e4b58bf735a8258842ad3c364eb9418c
0,         17,         17,        1,    37697, 8e5fc5d4c78eb495f62e4a014a6a2a6c
0,         18,         18,        1,    37697, 53bee2faf4cfae16037cda36a6194a57
0,         19,         19,        1,    37697, e5c2e1de872a7107f80966ae857557d4
0,         20,         20,        1,    37697, 882e46851681e6e3b376b5d1d9e139fb
0,         21,         21,        1,    37697, 40b199fe02b5885947af22ce1314a085
0,         22,         22,        1,    37697, 942b79dd5360c2a114db760424620a84
0,         23,         23,        1,    37697, fe9f69dd6fc113ceec9127d9e12b3958
0,         24,         24,        1,    37697, db13edae7e8e8a91d1ec84227c8f818f
0,         25,         25,        1,    37697, 1963ea61c3e93150f7604ee6fa09b12c
0,         26,         26,        1,    37697, 8cf43556160454d2353cedb9ba5675aa
0,         27,         27,        1,    37697, a5e6b5b00fea3d9b1bdbd01fda712f27
0,         28,         28,        1,    37697, 35f006cb6e570999b9011282c49c6d22
0,         29,         29,        1,    37697, d884d482371cb2727e26475bb390d38b
0,         30,         30,        1,    37697, a7233206056d3af69c6cff343b57de84
0,         31,         31,        1,    37697, 437492f3e594576e1c17065e0091aa2d
0,         32,         32,        1,    37697, 47f0677d9aff054056a194755628fdb8
0,         33,         33,        1,    37697, fc93105a16501763a6e6ba3445ee6f32
0,         34,         34,        1,    37697, 68612903d08399e0f0d9e28c1f18f6ea
0,         35,         35,        1,    37697, a340fbba24c73372e6248f10e878f11b
0,         36,         36,        1,    37697, 58c3561b06f9d866587f728877c08860
0,         37,         37,        1,    37697, f2dd2a029515ad9c0655ccf86a2c524b
0,         38,         38,        1,    37697, 789d43f63cbb302dad9f3e4b33713746
0,         39,         39,        1,    37697, d8f979aca1774470269283da048a505b
0,         40,         40,        1,    37697, ecc06e2175290319cb36614370c8ad62
0,         41,         41,        1,    37697, 5ba26b83766b666007b502a7194170e3
0,         42,         42,        1,    37697, 8163a20e9a345b70579c625c50e7ec73
0,         43,         43,        1,    37697, 1f1a497d768c4bcd57de11b21baf9138
0,         44,         44,        1,    37697, a21e9a52a982675815c9937b49ebb0ff
0,         45,         45,        1,    37697, dcc0bd83ce31ac99577cd2f9ced69096
0,         46,         46,        1,    37697, df36b27588b8515580d5015e5f66dbf9
0,         47,         47,        1,    37697, 156a6351549949953ce3197b990760a9
